<svg id="svg" version="1.1" xmlns="http://www.w3.org/2000/svg" viewBox="0 0 972 249" style="display: block;"><path d="M0 0 C320.76 0 641.52 0 972 0 C972 82.17 972 164.34 972 249 C651.24 249 330.48 249 0 249 C0 166.83 0 84.66 0 0 Z " transform="translate(0,0)" style="fill: #014C81;"/><path d="M0 0 C35.31 0 70.62 0 107 0 C111.11600947 13.52403112 115.21258851 27.0274527 119.0625 40.625 C119.49432955 42.14369806 119.92638076 43.66233312 120.35864258 45.1809082 C121.39344379 48.81749117 122.42626379 52.45463251 123.45837402 56.09197998 C124.69780008 60.45818441 125.94197841 64.82303119 127.1875 69.1875 C127.41775879 69.99566162 127.64801758 70.80382324 127.88525391 71.63647461 C129.12927132 75.99228892 130.39161343 80.34219308 131.671875 84.6875 C136.39078096 100.71340344 140.94767439 116.79069754 145 133 C150.61 133 156.22 133 162 133 C162 145.54 162 158.08 162 171 C130.32 171 98.64 171 66 171 C66 158.46 66 145.92 66 133 C70.29 133 74.58 133 79 133 C78.71125 131.95199219 78.4225 130.90398437 78.125 129.82421875 C77.74980207 128.44536634 77.37481295 127.06645711 77 125.6875 C76.80921875 124.99720703 76.6184375 124.30691406 76.421875 123.59570312 C75.62283816 120.64212051 75 118.07440781 75 115 C62.13 115 49.26 115 36 115 C34.68 120.94 33.36 126.88 32 133 C38.6 133 45.2 133 52 133 C52 145.54 52 158.08 52 171 C26.92 171 1.84 171 -24 171 C-24 158.46 -24 145.92 -24 133 C-18.06 133 -12.12 133 -6 133 C-5.67 130.69 -5.34 128.38 -5 126 C-4.32383907 123.77486483 -3.59085337 121.56648036 -2.8125 119.375 C-0.69266939 113.26398647 1.14078719 107.1057254 2.875 100.875 C4.88791892 93.67602367 7.08879966 86.57537013 9.5 79.5 C12.50201667 70.68519815 15.14049567 61.80097659 17.640625 52.83203125 C19.03616219 47.87145797 20.51925725 42.93580917 22 38 C14.74 38 7.48 38 0 38 C0 25.46 0 12.92 0 0 Z " transform="translate(40,23)" style="fill: #FD67AF;"/><path d="M0 0 C13.50980496 -0.0680973 27.01949371 -0.12300042 40.5294323 -0.15543652 C46.80435499 -0.17101346 53.07915296 -0.19210423 59.35400391 -0.22631836 C65.42298717 -0.25919842 71.49185136 -0.27691275 77.5609169 -0.28463173 C79.86266068 -0.29012427 82.16439883 -0.30084785 84.46609116 -0.31719017 C105.87829911 -0.46300923 131.47650786 -0.12718645 149 14 C149.82886719 14.61488281 150.65773438 15.22976562 151.51171875 15.86328125 C158.14115651 21.55606375 162.79466611 30.36720321 164 39 C165.43924907 58.20319171 163.3008941 77.21894248 151.25 92.9375 C138.35749922 106.40677055 117.74792699 110.77612693 99.7578125 111.21484375 C83.89908164 111.37981633 83.89908164 111.37981633 77 110 C77 117.59 77 125.18 77 133 C81.95 133 86.9 133 92 133 C92 145.54 92 158.08 92 171 C61.64 171 31.28 171 0 171 C0 158.46 0 145.92 0 133 C5.61 133 11.22 133 17 133 C17 101.65 17 70.3 17 38 C11.39 38 5.78 38 0 38 C0 25.46 0 12.92 0 0 Z " transform="translate(680,23)" style="fill: #FE67AF;"/><path d="M0 0 C4.28075114 3.35729842 8.23326664 7.07631942 12 11 C12.226875 10.195625 12.45375 9.39125 12.6875 8.5625 C14 5 14 5 19 -4 C37.15 -4 55.3 -4 74 -4 C74 6.89 74 17.78 74 29 C70.37 29 66.74 29 63 29 C63.00999275 30.40702179 63.00999275 30.40702179 63.02018738 31.84246826 C63.08127673 40.72724348 63.12610527 49.61197551 63.15543652 58.49691391 C63.17102345 63.06362482 63.19213267 67.63016478 63.22631836 72.19677734 C63.25916263 76.61235459 63.2769053 81.02776848 63.28463173 85.44345856 C63.29013062 87.11938291 63.30086722 88.79529938 63.31719017 90.47115326 C63.46850561 106.6658338 61.52220302 121.73901522 50.015625 134.12109375 C31.31031061 151.55763682 6.61978606 153.87778637 -17.77539062 153.16113281 C-31.10279395 152.49516626 -43.96542033 149.79312422 -57 147 C-57 136.77 -57 126.54 -57 116 C-52.02069442 116.71132937 -47.9175333 117.50497563 -43.1875 118.9375 C-29.78703995 122.80436937 -12.11969275 127.05978848 1 120 C5.26126498 117.31355034 7.25121901 114.72170868 9 110 C9.51292757 106.67344062 9.8074694 103.35932706 10 100 C9.34515625 100.45890625 8.6903125 100.9178125 8.015625 101.390625 C-5.79095484 110.67301484 -18.48430666 112.52645629 -34.75 110.4375 C-45.16084903 108.18312066 -54.08760116 101.75820077 -60 93 C-70.98133607 74.30688402 -74.15499452 53.34432073 -68.91088867 32.18798828 C-64.82064867 17.36237774 -57.37429629 5.8649428 -44 -2 C-30.82900369 -8.9213891 -12.57072848 -8.05815928 0 0 Z " transform="translate(590,83)" style="fill: #3DBEDB;"/><path d="M0 0 C0 44.88 0 89.76 0 136 C4.29 136 8.58 136 13 136 C13 146.56 13 157.12 13 168 C-8.78 168 -30.56 168 -53 168 C-53.495 162.06 -53.495 162.06 -54 156 C-54.639375 156.70125 -55.27875 157.4025 -55.9375 158.125 C-64.38103684 166.497183 -73.45064268 170.25293389 -85.25 170.5 C-97.91416656 170.43082714 -108.68047735 165.56467035 -118 157 C-121.01128503 153.52232065 -123.5673412 149.90034367 -126 146 C-126.61294922 145.05060547 -126.61294922 145.05060547 -127.23828125 144.08203125 C-133.33744413 133.41438344 -134.37001998 121.19095323 -134.4375 109.1875 C-134.44749023 108.15052979 -134.45748047 107.11355957 -134.46777344 106.04516602 C-134.29278189 90.35467413 -128.65421892 75.35321352 -117.96875 63.8046875 C-107.25609656 53.59661556 -96.04598644 50.47813789 -81.6875 50.73046875 C-69.97421054 51.21063793 -62.00728511 55.79417191 -53 63 C-52.67 54.42 -52.34 45.84 -52 37 C-57.61 37 -63.22 37 -69 37 C-69 27.1 -69 17.2 -69 7 C-65.60460937 6.69255859 -65.60460937 6.69255859 -62.140625 6.37890625 C-59.942964 6.17775295 -57.74540435 5.97552498 -55.54785156 5.77319336 C-54.02321465 5.63339718 -52.49847521 5.49471446 -50.97363281 5.35717773 C-48.77901606 5.15903274 -46.58480195 4.95685649 -44.390625 4.75390625 C-43.7113092 4.6934462 -43.03199341 4.63298615 -42.33209229 4.57069397 C-39.12479276 4.27024608 -36.11441238 3.79637392 -33 3 C-31.1086187 2.80074337 -29.21326479 2.63767398 -27.31640625 2.5 C-25.67768555 2.37625 -25.67768555 2.37625 -24.00585938 2.25 C-22.30139648 2.12625 -22.30139648 2.12625 -20.5625 2 C-18.31359408 1.83616394 -16.0648851 1.66959652 -13.81640625 1.5 C-12.82068604 1.4278125 -11.82496582 1.355625 -10.79907227 1.28125 C-7.12877862 0.91245992 -3.69560242 0 0 0 Z " transform="translate(344,26)" style="fill: #3DBEDB;"/><path d="M0 0 C1.17844482 0.00829834 2.35688965 0.01659668 3.57104492 0.02514648 C21.33332056 0.36801929 38.34872831 5.21938598 51.43359375 17.8515625 C64.41141833 32.74119833 66.67413537 48.6276413 65.9140625 67.66113281 C64.73312797 82.13267106 57.20469371 95.63240795 46.6875 105.4375 C29.07633928 119.113667 6.90471889 121.76102217 -14.69921875 119.14892578 C-30.85504496 116.32620286 -45.2705527 107.73512658 -55.125 94.6875 C-62.67409787 83.24785051 -64.49261706 71.58755417 -64.5625 58.1875 C-64.583125 57.21425781 -64.60375 56.24101562 -64.625 55.23828125 C-64.70289831 40.57392369 -59.70463338 28.28432325 -49.62109375 17.6875 C-36.03843368 4.44957749 -18.6088188 -0.1706245 0 0 Z " transform="translate(437.3125,76.5625)" style="fill: #3DBEDB;"/><path d="M0 0 C0 27.39 0 54.78 0 83 C4.62 83 9.24 83 14 83 C14 93.56 14 104.12 14 115 C-12.07 115 -38.14 115 -65 115 C-65 104.44 -65 93.88 -65 83 C-60.38 83 -55.76 83 -51 83 C-51 66.5 -51 50 -51 33 C-55.62 33 -60.24 33 -65 33 C-65 24.42 -65 15.84 -65 7 C-58.50744035 5.70148807 -52.35330553 4.59382029 -45.8125 4 C-44.97315918 3.91951416 -44.13381836 3.83902832 -43.26904297 3.75610352 C-35.41493743 3.01244714 -27.55355848 2.34100292 -19.69067383 1.69726562 C-15.99615203 1.3880082 -12.36791728 1.06248476 -8.7109375 0.44140625 C-6 0 -6 0 0 0 Z " transform="translate(926,79)" style="fill: #FE67AF;"/><path d="M0 0 C5.2922541 4.0082684 8.20146423 9.43749262 9.1953125 15.9765625 C9.47156492 22.57208902 8.27506616 28.71735238 4.0703125 33.91796875 C-3.43673704 41.26182156 -11.91004715 43.87103565 -22.2734375 44.15234375 C-32.1760981 43.81462925 -40.59038649 41.34741912 -48.1484375 34.71484375 C-53.47706124 27.91422451 -54.07149605 20.06530367 -53.1484375 11.71484375 C-50.59692355 4.53722039 -44.72680536 0.18585695 -38.23046875 -3.3203125 C-26.5484021 -8.17842533 -10.66826429 -6.38156173 0 0 Z " transform="translate(923.1484375,24.28515625)" style="fill: #FB67AF;"/><path d="M0 0 C3.91876301 1.83646827 6.54634723 3.41247913 8.7421875 7.2421875 C9.21389821 10.21545932 9.21021283 13.16591576 9.2109375 16.171875 C9.22235779 17.47380295 9.22235779 17.47380295 9.23400879 18.80203247 C9.24480118 20.63605884 9.24766638 22.47014662 9.24316406 24.30419922 C9.24219312 27.10098628 9.28379259 29.8950162 9.328125 32.69140625 C9.33333343 34.4765568 9.33602017 36.26171685 9.3359375 38.046875 C9.3605304 39.29402786 9.3605304 39.29402786 9.38562012 40.56637573 C9.33655744 44.71827785 9.03669097 47.40906025 6.38085938 50.69970703 C2.50243289 54.4367475 -0.86021461 56.37044017 -6.2578125 56.6171875 C-11.81193774 56.35320816 -15.57175778 54.21521205 -19.3828125 50.2421875 C-26.61984564 41.08162713 -27.35300214 30.45376802 -26.2578125 19.2421875 C-24.69242123 11.60048455 -21.53255381 5.96200388 -15.2578125 1.2421875 C-10.43294638 -1.62378298 -5.29983741 -1.77883816 0 0 Z " transform="translate(593.2578125,108.7578125)" style="fill: #024E82;"/><path d="M0 0 C3.86731333 1.82471826 7.94703218 3.94703218 11 7 C11.34169251 12.8930815 11.39971223 18.78824192 11.45996094 24.69018555 C11.48653734 26.67968866 11.527429 28.66905478 11.58300781 30.65795898 C11.662257 33.52644533 11.69529018 36.3922972 11.71875 39.26171875 C11.75174194 40.14631271 11.78473389 41.03090668 11.81872559 41.94230652 C11.80720256 45.51661438 11.79103283 47.99292118 9.53344727 50.86709595 C4.75131033 55.09520677 0.55468799 57.45221187 -5.98046875 57.24609375 C-10.54168362 56.6902784 -13.32849151 54.6235436 -16.625 51.5625 C-23.92075866 41.85843266 -24.0345671 29.58715149 -23 18 C-21.9344278 10.92155612 -18.62807202 6.36932043 -13 2 C-8.71749321 -0.52863721 -4.86796587 -0.89673055 0 0 Z " transform="translate(281,108)" style="fill: #014D81;"/><path d="M0 0 C3.45775419 1.07504721 5.02110654 2.78981509 7.1484375 5.66796875 C10.51853716 12.44864821 10.64073819 18.53309577 10.59448242 26.0012207 C10.58596979 28.09751612 10.61478967 30.19108198 10.64648438 32.28710938 C10.68988667 40.49398833 10.31380006 46.77400892 4.80712891 53.24389648 C2.16456393 55.80182571 0.20930304 56.6583584 -3.4140625 57.23046875 C-7.58766589 56.54751547 -9.01762319 55.80827988 -11.8515625 52.66796875 C-16.38428731 44.48769771 -17.03296203 37.04887779 -17.0390625 27.85546875 C-17.05130859 26.89576172 -17.06355469 25.93605469 -17.07617188 24.94726562 C-17.09486088 15.82080091 -16.00555402 8.31066516 -9.7265625 1.29296875 C-6.13361095 -0.73782995 -4.00295466 -0.67159206 0 0 Z " transform="translate(440.8515625,108.33203125)" style="fill: #014D82;"/><path d="M0 0 C19.42068966 0 19.42068966 0 26 6 C29.54044688 10.68588557 29.55368458 15.34450745 29 21 C27.95243747 26.61874449 26.09555115 29.99546109 22 34 C14.15978201 38.06011289 9.06633308 38 0 38 C0 25.46 0 12.92 0 0 Z " transform="translate(757,61)" style="fill: #044C81;"/><path d="M0 0 C1.67561615 3.04957677 2.5686458 5.91519728 3.33203125 9.3046875 C3.69047119 10.87790771 3.69047119 10.87790771 4.05615234 12.48291016 C4.43054443 14.16199463 4.43054443 14.16199463 4.8125 15.875 C5.07240723 17.02145996 5.33231445 18.16791992 5.60009766 19.34912109 C6.13773092 21.72249543 6.6731908 24.09636307 7.20654297 26.47070312 C8.17923509 30.79723768 9.16434289 35.12088512 10.15063477 39.44433594 C11.10361298 43.62883212 12.05129417 47.81453311 13 52 C3.76 52 -5.48 52 -15 52 C-13.65329968 45.26649841 -12.20474966 38.8727176 -10.21484375 32.34375 C-9.95369278 31.47480103 -9.69254181 30.60585205 -9.42347717 29.71057129 C-8.8768544 27.89493454 -8.32804067 26.07995606 -7.77709961 24.265625 C-6.93163075 21.4806668 -6.09320627 18.6936598 -5.25585938 15.90625 C-4.72175899 14.13529452 -4.18726805 12.36445678 -3.65234375 10.59375 C-3.40129379 9.76049194 -3.15024384 8.92723389 -2.8915863 8.06872559 C-1.11671695 2.23343389 -1.11671695 2.23343389 0 0 Z " transform="translate(97,60)" style="fill: #074C82;"/></svg>