<svg id="svg" version="1.1" xmlns="http://www.w3.org/2000/svg" viewBox="0 0 327 88" style="display: block;"><path d="M0 0 C107.91 0 215.82 0 327 0 C327 29.04 327 58.08 327 88 C219.09 88 111.18 88 0 88 C0 58.96 0 29.92 0 0 Z " transform="translate(0,0)" style="fill: #EFF4F5;"/><path d="M0 0 C11.88 0 23.76 0 36 0 C37.55019054 5.31968186 39.0991014 10.63970221 40.64477539 15.96069336 C41.17071936 17.76983047 41.6974049 19.57875217 42.22485352 21.38745117 C42.98389739 23.99080711 43.74025026 26.59493209 44.49609375 29.19921875 C44.73154404 30.00461594 44.96699432 30.81001312 45.20957947 31.63981628 C46.3004589 35.40773045 47.31847574 39.13124785 48 43 C50.97 43.495 50.97 43.495 54 44 C54 48.29 54 52.58 54 57 C43.44 57 32.88 57 22 57 C22 53.04 22 49.08 22 45 C23.32 45 24.64 45 26 45 C25.505 41.535 25.505 41.535 25 38 C18.565 38.495 18.565 38.495 12 39 C11.67 40.65 11.34 42.3 11 44 C12.98 44 14.96 44 17 44 C17 48.29 17 52.58 17 57 C8.75 57 0.5 57 -8 57 C-8 52.71 -8 48.42 -8 44 C-6.02 44 -4.04 44 -2 44 C-1.90847656 43.09121094 -1.81695313 42.18242188 -1.72265625 41.24609375 C-0.92882137 35.68924956 0.88797464 30.4044017 2.5625 25.0625 C2.89185547 23.99708984 3.22121094 22.93167969 3.56054688 21.83398438 C4.369 19.22115762 5.18226535 16.60993378 6 14 C3.03 13.505 3.03 13.505 0 13 C0 8.71 0 4.42 0 0 Z " transform="translate(15,11)" style="fill: #FE6AB1;"/><path d="M0 0 C5.38937415 -0.07464507 10.77844152 -0.12883434 16.16821289 -0.16479492 C17.99834441 -0.17979997 19.82844046 -0.20021059 21.65844727 -0.22631836 C24.30233558 -0.26306906 26.94574492 -0.27980937 29.58984375 -0.29296875 C30.79978249 -0.31619453 30.79978249 -0.31619453 32.03416443 -0.33988953 C39.09144961 -0.34193935 45.41735999 0.85695829 50.9375 5.4375 C54.44618951 9.79678091 55.45891199 12.9520779 55.3125 18.48828125 C54.57644279 24.40434109 52.70144358 29.41726178 48.3125 33.5 C40.63137709 36.97824434 33.35067437 37.28095727 25 37 C25 39.31 25 41.62 25 44 C26.65 44 28.3 44 30 44 C30 48.29 30 52.58 30 57 C20.1 57 10.2 57 0 57 C0 52.71 0 48.42 0 44 C1.65 44 3.3 44 5 44 C5 33.77 5 23.54 5 13 C3.35 13 1.7 13 0 13 C0 8.71 0 4.42 0 0 Z " transform="translate(230,11)" style="fill: #FE69B0;"/><path d="M0 0 C0 14.85 0 29.7 0 45 C1.32 45 2.64 45 4 45 C4 48.63 4 52.26 4 56 C-3.26 56 -10.52 56 -18 56 C-18.33 55.01 -18.66 54.02 -19 53 C-19.845625 53.66 -20.69125 54.32 -21.5625 55 C-25.60096715 57.34965361 -27.39983677 57.63450527 -32 57 C-36.65315126 55.52461057 -39.93550317 53.71627719 -42.4375 49.4375 C-45.66416711 42.33883236 -46.75572992 33.95690989 -44.09375 26.44140625 C-41.55737643 22.14095234 -38.5959731 19.08119537 -34 17 C-29.16957432 16.32436168 -25.30306505 16.37452877 -20.875 18.5 C-20.25625 18.995 -19.6375 19.49 -19 20 C-18.67 17.36 -18.34 14.72 -18 12 C-19.98 12 -21.96 12 -24 12 C-24 8.7 -24 5.4 -24 2 C-21.68841851 1.65889707 -19.37607998 1.327039 -17.0625 1 C-15.77472656 0.814375 -14.48695312 0.62875 -13.16015625 0.4375 C-8.79508556 -0.02154969 -4.38914214 0 0 0 Z " transform="translate(117,12)" style="fill: #42C0DC;"/><path d="M0 0 C2.79418202 1.40432982 4.63496363 2.89774545 7 5 C7.33 3.68 7.66 2.36 8 1 C14.27 1 20.54 1 27 1 C27 4.63 27 8.26 27 12 C25.68 12 24.36 12 23 12 C23.01571045 12.81678223 23.0314209 13.63356445 23.04760742 14.47509766 C23.1101394 18.19166077 23.14904944 21.90811296 23.1875 25.625 C23.21263672 26.91019531 23.23777344 28.19539063 23.26367188 29.51953125 C23.27333984 30.76347656 23.28300781 32.00742187 23.29296875 33.2890625 C23.3086792 34.43068848 23.32438965 35.57231445 23.34057617 36.74853516 C22.84064009 41.52140163 21.19252742 44.80747258 17.8125 48.1875 C11.08144728 52.52528953 5.13708115 53.46689189 -2.6875 53.3125 C-3.51572266 53.31572266 -4.34394531 53.31894531 -5.19726562 53.32226562 C-9.56632325 53.28378714 -13.02654292 53.03123773 -17 51 C-17 47.7 -17 44.4 -17 41 C-15.96552734 41.23396484 -15.96552734 41.23396484 -14.91015625 41.47265625 C-8.99425656 42.69803465 -2.89896785 43.93174991 3 42 C5.2773501 39.18490007 5.2773501 39.18490007 5 36 C4.21625 36.495 3.4325 36.99 2.625 37.5 C-2.08822163 39.45029861 -5.97699959 40.0973324 -11 39 C-15.38031191 36.33688678 -19.25705618 32.91425135 -21 28 C-21.21843936 25.32766392 -21.32474486 22.79437893 -21.3125 20.125 C-21.32861328 19.43019531 -21.34472656 18.73539063 -21.36132812 18.01953125 C-21.3666673 12.34932489 -19.9558463 8.58299267 -16.5625 4.1015625 C-11.56898605 -0.61730819 -6.69358088 -1.36223681 0 0 Z " transform="translate(197,29)" style="fill: #40BFDC;"/><path d="M0 0 C4.66756641 2.75286454 7.69693486 5.8134675 9.4375 11 C10.41180511 17.55267949 9.92495179 24.24439347 6.4375 30 C1.11162884 35.44691369 -4.39922788 38.13353901 -12 38.375 C-18.31644614 38.18438023 -22.87995144 36.52417532 -28.3125 33.4375 C-32.64093833 28.74835847 -34.72912207 22.72004347 -35.125 16.375 C-34.81613618 10.14256937 -31.45486873 5.79775029 -27.0625 1.625 C-19.05320614 -3.58104101 -8.69710824 -3.87844016 0 0 Z " transform="translate(160.5625,31)" style="fill: #41C0DC;"/><path d="M0 0 C0 9.24 0 18.48 0 28 C1.65 28 3.3 28 5 28 C5 31.3 5 34.6 5 38 C-3.58 38 -12.16 38 -21 38 C-21 34.7 -21 31.4 -21 28 C-19.68 28 -18.36 28 -17 28 C-17 22.39 -17 16.78 -17 11 C-18.65 11 -20.3 11 -22 11 C-22 8.03 -22 5.06 -22 2 C-20.3987111 1.65310569 -18.79368202 1.32348281 -17.1875 1 C-16.29417969 0.814375 -15.40085937 0.62875 -14.48046875 0.4375 C-9.68914842 -0.16477596 -4.82902545 0 0 0 Z " transform="translate(312,30)" style="fill: #FE69B0;"/><path d="M0 0 C3.21972897 2.49945571 3.91317518 3.39222626 4.5 7.5 C4 11 4 11 2.1875 13.375 C-1.74996457 16.29997368 -5.21341249 16.40564301 -10 16 C-12.60847629 14.50254139 -14.87028902 13.12971098 -17 11 C-17.51781922 7.20265904 -17.25914909 5.42574493 -15.25 2.125 C-10.48031091 -0.99364287 -5.5534513 -1.10763472 0 0 Z " transform="translate(310,10)" style="fill: #FE6CB2;"/><path d="M0 0 C5.875 0.875 5.875 0.875 7 2 C7.07319621 4.69654854 7.09242537 7.36691458 7.0625 10.0625 C7.05798828 10.82111328 7.05347656 11.57972656 7.04882812 12.36132812 C7.0370068 14.24091871 7.01907078 16.12046899 7 18 C4.17116253 19.41441874 2.12623255 19.31900332 -1 19 C-3.78055481 16.1411197 -4.43142646 14.00423023 -4.4375 10.0625 C-4.34366466 6.32564546 -4.08462801 5.13223127 -2 1.875 C-1.34 1.25625 -0.68 0.6375 0 0 Z " transform="translate(196,39)" style="fill: #EBF4F5;"/><path d="M0 0 C2.8125 0.8125 2.8125 0.8125 3.8125 1.8125 C3.88569621 4.50904854 3.90492537 7.17941458 3.875 9.875 C3.87048828 10.63361328 3.86597656 11.39222656 3.86132812 12.17382812 C3.8495068 14.05341871 3.83157078 15.93296899 3.8125 17.8125 C0.95129744 19.24310128 -1.02760585 19.19942581 -4.1875 18.8125 C-7.1776272 15.8223728 -7.43897563 12.81253226 -7.625 8.75 C-7.51042106 5.41226571 -7.32220656 4.03528393 -5.5625 1.125 C-3.1875 -0.1875 -3.1875 -0.1875 0 0 Z " transform="translate(95.1875,39.1875)" style="fill: #EBF4F5;"/><path d="M0 0 C1.9375 0.875 1.9375 0.875 3.9375 3.875 C4.203125 6.43359375 4.203125 6.43359375 4.1875 9.3125 C4.19265625 10.25996094 4.1978125 11.20742188 4.203125 12.18359375 C3.93498089 14.90052453 3.32281142 16.54965583 1.9375 18.875 C-0.4375 19.0625 -0.4375 19.0625 -3.0625 18.875 C-5.43434142 15.31723788 -5.36074394 13.59479393 -5.375 9.375 C-5.39175781 8.2303125 -5.40851563 7.085625 -5.42578125 5.90625 C-5.0625 2.875 -5.0625 2.875 -3.671875 0.9609375 C-2.0625 -0.125 -2.0625 -0.125 0 0 Z " transform="translate(149.0625,39.125)" style="fill: #E6F3F4;"/><path d="M0 0 C6.625 0.75 6.625 0.75 10 3 C10.54896129 6.60745994 10.45245486 8.33871982 8.375 11.375 C6 13 6 13 0 13 C0 8.71 0 4.42 0 0 Z " transform="translate(255,23)" style="fill: #F1EAF0;"/><path d="M0 0 C0.66 0.33 1.32 0.66 2 1 C2.8515625 3.58203125 2.8515625 3.58203125 3.625 6.8125 C3.88539062 7.87082031 4.14578125 8.92914063 4.4140625 10.01953125 C5 13 5 13 5 17 C2.03 17 -0.94 17 -4 17 C-3.45018084 10.95198929 -2.09570426 5.69398894 0 0 Z " transform="translate(33,24)" style="fill: #F1E5ED;"/></svg>